<?xml version="1.0" standalone="no"?>
<!DOCTYPE svg PUBLIC "-//W3C//DTD SVG 20010904//EN"
 "http://www.w3.org/TR/2001/REC-SVG-20010904/DTD/svg10.dtd">
<svg version="1.0" xmlns="http://www.w3.org/2000/svg"
 width="1150.000000pt" height="465.000000pt" viewBox="0 0 1150.000000 465.000000"
 preserveAspectRatio="xMidYMid meet">
<metadata>
Created by potrace 1.16, written by Peter Selinger 2001-2019
</metadata>
<g transform="translate(0.000000,465.000000) scale(0.100000,-0.100000)"
fill="#000000" stroke="none">
<path d="M1964 4035 c-636 -82 -1180 -531 -1379 -1139 -57 -175 -79 -314 -79
-511 0 -178 9 -253 51 -420 115 -464 454 -875 893 -1084 146 -70 228 -95 262
-82 53 20 59 42 56 222 l-3 164 -35 -5 c-19 -3 -89 -5 -155 -4 -100 0 -130 4
-177 23 -91 35 -158 104 -214 218 -47 97 -96 156 -192 231 -53 42 -55 69 -7
78 108 20 210 -44 323 -203 72 -101 154 -143 276 -142 39 0 96 8 126 17 52 17
56 20 68 62 21 70 45 122 70 152 27 32 29 31 -75 47 -324 49 -547 228 -622
499 -28 103 -45 261 -37 360 10 130 65 271 146 372 20 25 20 28 4 95 -20 88
-14 212 16 309 l22 69 69 -6 c82 -7 202 -53 316 -122 l77 -46 111 23 c94 20
139 23 315 23 174 0 221 -4 311 -23 l106 -23 79 47 c138 82 277 130 354 122
32 -3 35 -6 53 -63 27 -89 33 -235 13 -314 l-16 -65 28 -35 c83 -104 130 -231
139 -376 11 -195 -38 -413 -120 -537 -110 -164 -304 -274 -551 -310 -47 -6
-86 -15 -86 -18 0 -4 8 -15 19 -24 31 -28 70 -127 81 -207 7 -43 10 -178 8
-320 -3 -229 -2 -248 16 -267 31 -35 65 -35 157 -2 194 72 399 199 561 350
536 497 680 1293 352 1951 -23 47 -75 135 -115 195 -90 135 -282 331 -417 424
-349 244 -775 349 -1198 295z"/>
<path d="M5195 3249 c-368 -39 -561 -271 -594 -712 -23 -304 36 -558 162 -706
115 -135 274 -202 516 -217 175 -11 340 18 471 84 l75 37 0 405 0 405 -285 0
-285 0 -3 -138 c-2 -105 0 -138 10 -142 7 -2 58 -5 113 -7 l100 -3 3 -156 2
-156 -31 -7 c-60 -12 -214 -6 -268 10 -105 31 -185 135 -216 279 -20 93 -20
312 0 406 31 148 114 250 233 286 83 26 309 23 412 -5 62 -17 77 -18 85 -7 6
7 23 68 39 134 23 97 26 124 16 136 -43 51 -366 94 -555 74z"/>
<path d="M7408 3189 c-17 -9 -18 -57 -18 -773 0 -687 2 -764 16 -770 9 -3 83
-6 164 -6 137 0 150 2 160 19 6 13 10 137 10 335 l0 316 250 0 250 0 0 -329
c0 -291 2 -330 16 -335 31 -12 309 -7 322 6 9 9 12 194 12 770 0 738 0 758
-19 768 -11 5 -81 10 -156 10 -75 0 -145 -5 -156 -10 -18 -10 -19 -24 -19
-290 l0 -280 -250 0 -250 0 0 274 c0 236 -2 277 -16 290 -13 13 -41 16 -157
16 -78 0 -150 -5 -159 -11z"/>
<path d="M9952 3192 c-10 -7 -12 -169 -10 -778 l3 -769 120 0 119 0 9 37 9 37
61 -34 c90 -49 173 -68 297 -68 158 0 253 41 320 139 75 108 114 342 93 551
-23 230 -106 355 -270 408 -75 24 -245 17 -328 -14 -33 -12 -68 -24 -77 -28
-17 -5 -18 12 -18 255 0 228 -2 261 -16 266 -23 9 -297 7 -312 -2z m604 -758
c61 -45 90 -157 80 -312 -7 -121 -21 -166 -64 -203 -34 -30 -36 -31 -126 -27
-55 2 -106 10 -128 20 l-38 17 0 245 c0 136 1 246 3 246 1 0 27 9 57 20 72 27
177 24 216 -6z"/>
<path d="M6105 3141 c-62 -28 -115 -104 -115 -166 0 -61 59 -146 118 -170 94
-40 217 8 251 98 24 63 10 150 -32 196 -53 57 -149 76 -222 42z"/>
<path d="M6640 2847 l0 -153 -52 -13 c-29 -7 -70 -17 -90 -22 l-38 -10 0 -108
c0 -126 -5 -121 112 -121 l66 0 4 -277 c5 -326 9 -346 93 -430 42 -41 65 -55
121 -73 81 -24 238 -29 319 -8 l50 13 0 120 0 120 -93 5 c-91 5 -95 7 -123 38
l-29 32 0 230 0 230 108 0 c71 0 114 4 125 13 15 11 17 28 15 137 l-3 125
-122 3 -123 3 0 149 0 150 -170 0 -170 0 0 -153z"/>
<path d="M6027 2694 c-4 -4 -7 -240 -7 -525 0 -462 2 -518 16 -523 23 -9 297
-7 312 2 10 7 12 119 10 528 l-3 519 -161 3 c-88 1 -163 -1 -167 -4z"/>
<path d="M8767 2693 c-12 -11 -8 -777 4 -831 5 -28 25 -74 42 -103 61 -101
160 -142 342 -143 119 -1 207 19 308 71 27 13 50 23 52 21 1 -2 7 -16 12 -33
l10 -30 104 -3 c89 -2 106 0 116 15 20 26 19 1016 -1 1032 -9 8 -64 11 -172 9
l-159 -3 -3 -381 -2 -382 -42 -17 c-107 -42 -204 -39 -245 10 -23 26 -23 27
-23 385 0 197 -3 365 -6 374 -5 14 -30 16 -168 16 -90 0 -166 -3 -169 -7z"/>
</g>
</svg>
